<svg xmlns="http://www.w3.org/2000/svg" width="40" height="41" viewBox="0 0 40 41"><defs><clipPath id="lupka"><path fill="#fff" d="M20-.057c11.105 0 20.108 9.188 20.108 20.523 0 11.335-9.003 20.524-20.108 20.524-11.106 0-20.108-9.189-20.108-20.524S8.894-.057 20-.057z"/></clipPath><clipPath id="lupkb"><path fill="#fff" d="M20 10.707c4.858 0 8.797 4.217 8.797 9.418 0 5.202-3.939 9.419-8.797 9.419-4.859 0-8.797-4.217-8.797-9.419 0-5.201 3.938-9.418 8.797-9.418z"/></clipPath></defs><g><g><path fill="#f9f9f9" d="M20-.057c11.105 0 20.108 9.188 20.108 20.523 0 11.335-9.003 20.524-20.108 20.524-11.106 0-20.108-9.189-20.108-20.524S8.894-.057 20-.057z"/><path fill="none" stroke="#000" stroke-miterlimit="20" stroke-width="4" d="M20-.057c11.105 0 20.108 9.188 20.108 20.523 0 11.335-9.003 20.524-20.108 20.524-11.106 0-20.108-9.189-20.108-20.524S8.894-.057 20-.057z" clip-path="url(&quot;#lupka&quot;)"/></g><g><path fill="#fb6470" d="M20 10.707c4.858 0 8.797 4.217 8.797 9.418 0 5.202-3.939 9.419-8.797 9.419-4.859 0-8.797-4.217-8.797-9.419 0-5.201 3.938-9.418 8.797-9.418z"/><path fill="none" stroke="#000" stroke-miterlimit="20" stroke-width="4" d="M20 10.707c4.858 0 8.797 4.217 8.797 9.418 0 5.202-3.939 9.419-8.797 9.419-4.859 0-8.797-4.217-8.797-9.419 0-5.201 3.938-9.418 8.797-9.418z" clip-path="url(&quot;#lupkb&quot;)"/></g></g></svg>