<svg xmlns="http://www.w3.org/2000/svg" width="40" height="41" viewBox="0 0 40 41"><defs><clipPath id="514qa"><path fill="#fff" d="M20-.057c11.105 0 20.108 9.188 20.108 20.523 0 11.335-9.003 20.524-20.108 20.524-11.106 0-20.108-9.189-20.108-20.524S8.894-.057 20-.057z"/></clipPath></defs><g><g><path fill="#f9f9f9" d="M20-.057c11.105 0 20.108 9.188 20.108 20.523 0 11.335-9.003 20.524-20.108 20.524-11.106 0-20.108-9.189-20.108-20.524S8.894-.057 20-.057z"/><path fill="none" stroke="#000" stroke-miterlimit="20" stroke-width="4" d="M20-.057c11.105 0 20.108 9.188 20.108 20.523 0 11.335-9.003 20.524-20.108 20.524-11.106 0-20.108-9.189-20.108-20.524S8.894-.057 20-.057z" clip-path="url(&quot;#514qa&quot;)"/></g></g></svg>