<svg xmlns="http://www.w3.org/2000/svg" width="32" height="32" viewBox="0 0 32 32"><g><g><path fill="#3e3e3e" d="M31.105 18.093c-.567.566-1.32.88-2.12.88-.348 0-.683-.07-1-.182v11.192a2.004 2.004 0 0 1-2 2.002h-4c-1.104 0-2-.898-2-2.002v-7.007h-8v7.007a2.004 2.004 0 0 1-2 2.002h-4c-1.104 0-2-.898-2-2.002V18.791a2.994 2.994 0 0 1-1 .181 2.981 2.981 0 0 1-2.122-.88 3.008 3.008 0 0 1 0-4.246l13-13.012C14.997-.3 16.972-.3 18.105.834l13 13.012a3.008 3.008 0 0 1 0 4.247zM15.277 2.249c-.39.39-.39 1.026 0 1.415l.707.708.707-.708a1.003 1.003 0 0 0-.707-1.708.994.994 0 0 0-.707.293zM3.691 16.677l10.88-10.89-.708-.707a2.98 2.98 0 0 1-.577-.838L2.277 15.262c-.39.39-.39 1.025 0 1.415a1.025 1.025 0 0 0 1.414 0zm22.293 13.306v-12.77l-10-10.01-10 10.01v12.77h4v-7.007c0-1.103.897-2.002 2-2.002h8c1.103 0 2 .899 2 2.002v7.007zm3.707-14.721L18.682 4.242a2.98 2.98 0 0 1-.577.838l-.707.708 10.88 10.89a1.025 1.025 0 0 0 1.413 0c.39-.39.39-1.026 0-1.416zm-9.707-.294a4.006 4.006 0 0 1-4 4.004c-2.205 0-4-1.795-4-4.004a4.006 4.006 0 0 1 4-4.004c2.206 0 4 1.796 4 4.004zm-2 0a2.003 2.003 0 0 0-2-2.002 2.003 2.003 0 0 0 0 4.004c1.103 0 2-.898 2-2.002z"/></g></g></svg>