<svg xmlns="http://www.w3.org/2000/svg" width="32" height="32" viewBox="0 0 32 32"><g><g><path fill="#3e3e3e" d="M.433 21.175L30.424.184h.001c.007-.005.016-.007.023-.012.025-.016.054-.026.08-.04a1.018 1.018 0 0 1 .21-.088c.036-.01.071-.013.108-.02.024-.003.048-.01.073-.012.011-.001.023-.006.035-.007.045-.002.09.009.134.013.037.004.071.004.107.01a.704.704 0 0 1 .091.025c.033.01.063.024.095.038.041.017.083.027.122.05.006.003.01.009.017.013.004.002.009.002.013.005.014.008.02.022.033.032.019.013.035.027.052.04.016.013.035.017.05.031.008.007.011.018.02.025.034.034.064.072.094.11.02.027.04.054.058.083.019.03.04.058.056.088.01.021.013.044.021.064.014.036.027.072.037.109.006.019.015.036.02.056.007.035.006.07.01.105a.955.955 0 0 1 .004.107c0 .031.008.062.005.094l-2.991 29.99a.999.999 0 0 1-1.474.78l-11-6c-.025-.014-.04-.037-.062-.052l-3.615 5.709c-.033.052-.074.093-.114.137-.013.014-.022.03-.036.043a.975.975 0 0 1-.278.187c-.023.01-.046.018-.07.027a1.016 1.016 0 0 1-.345.07h-.002c-.117 0-.231-.028-.344-.069-.033-.013-.063-.027-.094-.043-.032-.015-.066-.023-.097-.043-.03-.02-.047-.05-.076-.073a.934.934 0 0 1-.327-.468.994.994 0 0 1-.04-.2c-.004-.035-.022-.066-.022-.104v-8h-10a1 1 0 0 1-.573-1.819zm12.574 6.371l10.9-17.216-10.9 12.05zm14.154 1.848l2.423-24.288L17.53 24.14zm-15.598-8.4L24.31 6.904 4.18 20.994z"/></g></g></svg>