<svg xmlns="http://www.w3.org/2000/svg" width="32" height="32" viewBox="0 0 32 32"><g><g><path fill="#3e3e3e" d="M5.082 31.988c-.948 0-1.84-.37-2.512-1.037l-.899-.899c-3.93-3.922-.77-13.222 7.193-21.17C14.348 3.41 20.7.012 25.444.012c1.92 0 3.522.584 4.631 1.691l.899.898a3.518 3.518 0 0 1 1.041 2.508c0 .948-.37 1.838-1.042 2.507l-3.596 3.59c-1.341 1.34-3.683 1.338-5.025 0l-.899-.898c-.289-.289-.66-.43-1.134-.43-.898 0-2.926.523-6.43 4.02-4.114 4.106-4.555 6.592-3.597 7.55l.9.897a3.545 3.545 0 0 1 0 5.014l-3.597 3.59a3.537 3.537 0 0 1-2.513 1.04zm20.362-29.96c-4.163 0-10.111 3.25-15.152 8.28C3.368 17.218.074 25.608 3.1 28.627l.898.897c.58.577 1.59.578 2.171 0l3.596-3.59a1.53 1.53 0 0 0 0-2.163l-.9-.898c-1.025-1.025-2.728-4.089 3.597-10.4 3.065-3.059 5.71-4.61 7.858-4.61 1.009 0 1.894.352 2.562 1.02l.9.897c.58.58 1.588.578 2.168 0l3.597-3.59a1.52 1.52 0 0 0 0-2.164l-.899-.897c-.732-.732-1.81-1.102-3.203-1.102z"/></g></g></svg>